<svg xmlns="http://www.w3.org/2000/svg" viewBox="0 0 1280 440" preserveAspectRatio="xMidYMid meet" font-family="ui-monospace, SFMono-Regular, 'SF Mono', Consolas, 'Liberation Mono', Menlo, monospace">
  <rect width="1280" height="440" fill="#2b2b2b"/>

  <rect x="0" y="0" width="1280" height="26" fill="#3c3c3c"/>
  <circle cx="14" cy="13" r="4" fill="#ff5f56"/>
  <circle cx="30" cy="13" r="4" fill="#ffbd2e"/>
  <circle cx="46" cy="13" r="4" fill="#27c93f"/>
  <text x="64" y="17" fill="#d4d4d4" font-size="11">x64dbg  —  [profile.bin]  —  Suspended at entry breakpoint</text>
  <text x="1230" y="17" fill="#888" font-size="11">─  □  ✕</text>

  <rect x="0" y="26" width="1280" height="26" fill="#252526"/>
  <rect x="6" y="32" width="14" height="14" rx="2" fill="#4ec9b0"/>
  <rect x="24" y="32" width="14" height="14" rx="2" fill="#dcdcaa"/>
  <rect x="42" y="32" width="14" height="14" rx="2" fill="#f48771"/>
  <text x="66" y="42" fill="#888" font-size="10">F7 step into</text>
  <text x="146" y="42" fill="#888" font-size="10">F8 step over</text>
  <text x="226" y="42" fill="#888" font-size="10">F9 run</text>
  <line x1="280" y1="30" x2="280" y2="48" stroke="#3f3f46" stroke-width="1"/>
  <rect x="290" y="26" width="64" height="26" fill="#1e1e1e"/>
  <text x="306" y="43" fill="#d4d4d4" font-size="11">CPU</text>
  <text x="364" y="43" fill="#888" font-size="11">Log</text>
  <text x="394" y="43" fill="#888" font-size="11">Notes</text>
  <text x="436" y="43" fill="#888" font-size="11">Breakpoints</text>
  <text x="514" y="43" fill="#888" font-size="11">Memory Map</text>
  <text x="592" y="43" fill="#888" font-size="11">Call Stack</text>
  <text x="660" y="43" fill="#888" font-size="11">Symbols</text>
  <text x="714" y="43" fill="#888" font-size="11">Source</text>
  <text x="762" y="43" fill="#888" font-size="11">References</text>
  <text x="836" y="43" fill="#888" font-size="11">Threads</text>
  <text x="892" y="43" fill="#888" font-size="11">Handles</text>

  <rect x="6" y="56" width="820" height="194" fill="#1e1e1e" stroke="#3f3f46" stroke-width="0.5"/>
  <rect x="6" y="56" width="820" height="20" fill="#353535"/>
  <text x="14" y="70" fill="#d4d4d4" font-size="10">Address</text>
  <text x="120" y="70" fill="#d4d4d4" font-size="10">Bytes</text>
  <text x="290" y="70" fill="#d4d4d4" font-size="10">Disassembly</text>
  <text x="540" y="70" fill="#d4d4d4" font-size="10">Comment</text>

  <rect x="6" y="80" width="820" height="20" fill="#1f3a5c"/>
  <text x="11" y="94" fill="#7ce38b" font-size="13" font-weight="bold">▶</text>
  <text x="26" y="94" fill="#858585" font-size="12">00401000</text>
  <text x="120" y="94" fill="#b5cea8" font-size="12">55</text>
  <text x="290" y="94" fill="#569cd6" font-size="12">push</text>
  <text x="340" y="94" fill="#9cdcfe" font-size="12">rbp</text>
  <text x="540" y="94" fill="#6a9955" font-size="11">; entry — initialize profile</text>

  <text x="26" y="116" fill="#858585" font-size="12">00401001</text>
  <text x="120" y="116" fill="#b5cea8" font-size="12">48 89 E5</text>
  <text x="290" y="116" fill="#569cd6" font-size="12">mov</text>
  <text x="340" y="116" fill="#9cdcfe" font-size="12">rbp, rsp</text>

  <text x="26" y="138" fill="#858585" font-size="12">00401004</text>
  <text x="120" y="138" fill="#b5cea8" font-size="12">E8 F7 0F 00 00</text>
  <text x="290" y="138" fill="#569cd6" font-size="12">call</text>
  <text x="340" y="138" fill="#dcdcaa" font-size="12">load_modules</text>
  <text x="540" y="138" fill="#6a9955" font-size="11">; IDA · Ghidra · WinDbg · x64dbg</text>

  <text x="26" y="160" fill="#858585" font-size="12">00401009</text>
  <text x="120" y="160" fill="#b5cea8" font-size="12">E8 02 10 00 00</text>
  <text x="290" y="160" fill="#569cd6" font-size="12">call</text>
  <text x="340" y="160" fill="#dcdcaa" font-size="12">analyze_threats</text>
  <text x="540" y="160" fill="#6a9955" font-size="11">; static · dynamic · ML</text>

  <circle cx="11" cy="178" r="4" fill="#e24b4a"/>
  <text x="26" y="182" fill="#858585" font-size="12">0040100E</text>
  <text x="120" y="182" fill="#b5cea8" font-size="12">E8 4D 20 00 00</text>
  <text x="290" y="182" fill="#569cd6" font-size="12">call</text>
  <text x="340" y="182" fill="#dcdcaa" font-size="12">hunt_artifacts</text>
  <text x="540" y="182" fill="#6a9955" font-size="11">; MFT · USN · timestomping</text>

  <text x="26" y="204" fill="#858585" font-size="12">00401013</text>
  <text x="120" y="204" fill="#b5cea8" font-size="12">31 C0</text>
  <text x="290" y="204" fill="#569cd6" font-size="12">xor</text>
  <text x="340" y="204" fill="#9cdcfe" font-size="12">eax, eax</text>

  <text x="26" y="226" fill="#858585" font-size="12">00401015</text>
  <text x="120" y="226" fill="#b5cea8" font-size="12">5D</text>
  <text x="290" y="226" fill="#569cd6" font-size="12">pop</text>
  <text x="340" y="226" fill="#9cdcfe" font-size="12">rbp</text>

  <text x="26" y="244" fill="#858585" font-size="12">00401016</text>
  <text x="120" y="244" fill="#b5cea8" font-size="12">C3</text>
  <text x="290" y="244" fill="#569cd6" font-size="12">ret</text>

  <rect x="828" y="56" width="446" height="194" fill="#1e1e1e" stroke="#3f3f46" stroke-width="0.5"/>
  <rect x="828" y="56" width="446" height="20" fill="#353535"/>
  <text x="836" y="70" fill="#d4d4d4" font-size="10">Registers (FPU)</text>

  <text x="836" y="94" fill="#dcdcaa" font-size="12">RAX</text>
  <text x="876" y="94" fill="#b5cea8" font-size="12">00007FFE'52450001</text>
  <text x="1010" y="94" fill="#6a9955" font-size="11">"Reverse Engineering"</text>

  <text x="836" y="114" fill="#dcdcaa" font-size="12">RBX</text>
  <text x="876" y="114" fill="#b5cea8" font-size="12">00007FFE'4D414C57</text>
  <text x="1010" y="114" fill="#6a9955" font-size="11">"Malware Analysis"</text>

  <text x="836" y="134" fill="#dcdcaa" font-size="12">RCX</text>
  <text x="876" y="134" fill="#b5cea8" font-size="12">00007FFE'44464952</text>
  <text x="1010" y="134" fill="#6a9955" font-size="11">"DFIR"</text>

  <text x="836" y="154" fill="#dcdcaa" font-size="12">RDX</text>
  <text x="876" y="154" fill="#b5cea8" font-size="12">00007FFE'57494E33</text>
  <text x="1010" y="154" fill="#6a9955" font-size="11">"Windows Internals"</text>

  <text x="836" y="174" fill="#dcdcaa" font-size="12">RSI</text>
  <text x="876" y="174" fill="#b5cea8" font-size="12">00007FFE'4D4C5345</text>
  <text x="1010" y="174" fill="#6a9955" font-size="11">"ML for Security"</text>

  <text x="836" y="194" fill="#dcdcaa" font-size="12">RDI</text>
  <text x="876" y="194" fill="#b5cea8" font-size="12">00007FFE'49544F54</text>
  <text x="1010" y="194" fill="#6a9955" font-size="11">"IT/OT Security"</text>

  <line x1="836" y1="204" x2="1264" y2="204" stroke="#3f3f46" stroke-width="0.5"/>
  <text x="836" y="220" fill="#dcdcaa" font-size="12">RSP</text>
  <text x="876" y="220" fill="#b5cea8" font-size="12">00000000'0019F000</text>
  <text x="836" y="240" fill="#f48771" font-size="12">RIP</text>
  <text x="876" y="240" fill="#7ce38b" font-size="12">00000000'00401000</text>
  <text x="1010" y="240" fill="#6a9955" font-size="11">→ introduce()</text>

  <rect x="6" y="256" width="820" height="160" fill="#1e1e1e" stroke="#3f3f46" stroke-width="0.5"/>
  <rect x="6" y="256" width="820" height="20" fill="#353535"/>
  <text x="14" y="270" fill="#d4d4d4" font-size="10">Dump 1  —  00000000</text>

  <text x="14" y="294" fill="#858585" font-size="12">00000000</text>
  <text x="120" y="294" fill="#b5cea8" font-size="12">52 45 56 45 52 53 45 20  45 4E 47 49 4E 45 45 52</text>
  <text x="640" y="294" fill="#ce9178" font-size="12">REVERSE ENGINEER</text>

  <text x="14" y="314" fill="#858585" font-size="12">00000010</text>
  <text x="120" y="314" fill="#b5cea8" font-size="12">20 7C 20 4D 41 4C 57 41  52 45 20 7C 20 44 46 49</text>
  <text x="640" y="314" fill="#ce9178" font-size="12"> | MALWARE | DFI</text>

  <text x="14" y="334" fill="#858585" font-size="12">00000020</text>
  <text x="120" y="334" fill="#b5cea8" font-size="12">52 20 7C 20 4D 4C 20 53  45 43 55 52 49 54 59 0A</text>
  <text x="640" y="334" fill="#ce9178" font-size="12">R | ML SECURITY.</text>

  <text x="14" y="354" fill="#858585" font-size="12">00000030</text>
  <text x="120" y="354" fill="#b5cea8" font-size="12">2D 2D 2D 2D 2D 2D 2D 2D  2D 2D 2D 2D 2D 2D 2D 2D</text>
  <text x="640" y="354" fill="#ce9178" font-size="12">----------------</text>

  <text x="14" y="374" fill="#858585" font-size="12">00000040</text>
  <text x="120" y="374" fill="#b5cea8" font-size="12">62 75 69 6C 64 20 7C 20  62 72 65 61 6B 20 7C 20</text>
  <text x="640" y="374" fill="#ce9178" font-size="12">build | break | </text>

  <text x="14" y="394" fill="#858585" font-size="12">00000050</text>
  <text x="120" y="394" fill="#b5cea8" font-size="12">61 6E 61 6C 79 7A 65 0A  00 00 00 00 00 00 00 00</text>
  <text x="640" y="394" fill="#ce9178" font-size="12">analyze.........</text>

  <rect x="828" y="256" width="446" height="160" fill="#1e1e1e" stroke="#3f3f46" stroke-width="0.5"/>
  <rect x="828" y="256" width="446" height="20" fill="#353535"/>
  <text x="836" y="270" fill="#d4d4d4" font-size="10">Stack  —  Call Hierarchy</text>

  <text x="836" y="294" fill="#858585" font-size="12">0019F000</text>
  <text x="930" y="294" fill="#dcdcaa" font-size="12">H9</text>
  <text x="1010" y="294" fill="#6a9955" font-size="11">; dynamic detection</text>

  <text x="836" y="314" fill="#858585" font-size="12">0019F008</text>
  <text x="930" y="314" fill="#dcdcaa" font-size="12">Ransomware_Key_BF</text>
  <text x="1100" y="314" fill="#6a9955" font-size="11">; key recovery</text>

  <text x="836" y="334" fill="#858585" font-size="12">0019F010</text>
  <text x="930" y="334" fill="#dcdcaa" font-size="12">LogsAnalytics</text>
  <text x="1062" y="334" fill="#6a9955" font-size="11">; IR log parsing</text>

  <text x="836" y="354" fill="#858585" font-size="12">0019F018</text>
  <text x="930" y="354" fill="#dcdcaa" font-size="12">webshell_BF</text>
  <text x="1042" y="354" fill="#6a9955" font-size="11">; offensive testing</text>

  <text x="836" y="374" fill="#858585" font-size="12">0019F020</text>
  <text x="930" y="374" fill="#dcdcaa" font-size="12">Reverse-function</text>
  <text x="1086" y="374" fill="#6a9955" font-size="11">; RE utilities</text>

  <text x="836" y="394" fill="#858585" font-size="12">0019F028</text>
  <text x="930" y="394" fill="#f48771" font-size="12">Collector</text>
  <text x="1010" y="394" fill="#6a9955" font-size="11">; [PRIVATE] win artifacts</text>

  <rect x="0" y="420" width="1280" height="20" fill="#0e639c"/>
  <text x="10" y="434" fill="#ffffff" font-size="11">Process: profile.bin (PID: 0xDEAD)  ·  Module: darksys0x.exe  ·  Threads: 1  ·  System breakpoint</text>
  <text x="1130" y="434" fill="#ffffff" font-size="11">Status: Paused</text>
</svg>
